<?xml version="1.0" encoding="UTF-8"?>
<svg version="1.1" xmlns="http://www.w3.org/2000/svg" width="512" height="512">
<path d="M0 0 C1.41886348 -0.004178 2.83772362 -0.00965806 4.25657761 -0.01631981 C8.13721529 -0.0307322 12.01763983 -0.02654294 15.89828897 -0.019153 C20.09062949 -0.01441316 24.28292444 -0.0269384 28.47525024 -0.03717041 C36.68136628 -0.05434792 44.88740571 -0.05520058 53.09353505 -0.04995751 C59.765145 -0.04591253 66.43673234 -0.04736326 73.10834122 -0.05270576 C74.53383458 -0.0538284 74.53383458 -0.0538284 75.98812578 -0.05497371 C77.91885693 -0.05650522 79.84958808 -0.05804357 81.78031923 -0.05958868 C99.87784276 -0.07331 117.97532305 -0.06787867 136.07284559 -0.05640347 C152.61919296 -0.04647205 169.16542848 -0.05941083 185.7117586 -0.08333766 C202.71314485 -0.10773675 219.71447902 -0.1173345 236.71588242 -0.11068493 C246.2562276 -0.10719444 255.79648678 -0.10941353 265.3368187 -0.12693596 C273.45848601 -0.14166808 281.58000676 -0.14228019 289.70167123 -0.12486505 C293.84283321 -0.11636089 297.9837335 -0.11419108 302.12488174 -0.1295166 C305.92110348 -0.14339133 309.71684002 -0.13856528 313.51303388 -0.11927737 C315.52558755 -0.11375786 317.53816608 -0.12776563 319.55067241 -0.14263147 C331.49833157 -0.04609434 341.29785264 2.85112014 349.93215942 11.38768005 C357.08771115 19.79614939 360.40891653 28.22080178 360.31311035 39.22564697 C360.31779032 40.06764277 360.3224703 40.90963856 360.32729208 41.77714938 C360.33917186 44.57302795 360.32981273 47.36840997 360.32034302 50.16429138 C360.32441169 52.17881047 360.32975522 54.19332732 360.33627319 56.20783997 C360.34991302 61.65993704 360.34466305 67.11186323 360.33513594 72.56396317 C360.32752732 78.27292219 360.33458781 83.98186682 360.33929443 89.69082642 C360.34474626 99.27136355 360.33757307 108.85183121 360.32327271 118.43235779 C360.30692403 129.51322473 360.31225312 140.59392627 360.32875192 151.67478925 C360.34235532 161.19174168 360.34429276 170.70864427 360.33643591 180.22560328 C360.3317561 185.90865746 360.33114354 191.5916338 360.34104538 197.274683 C360.34969688 202.61239902 360.34372639 207.949901 360.32636261 213.28759384 C360.32238905 215.24839993 360.32354661 217.20922397 360.3301506 219.17002296 C360.33832125 221.84180402 360.32809922 224.51289456 360.31311035 227.18463135 C360.31980252 227.9644853 360.32649468 228.74433926 360.33338964 229.54782516 C360.29882156 232.71382404 360.10086498 235.05489492 358.65834999 237.9003706 C356.93215942 239.38768005 356.93215942 239.38768005 352.93215942 239.38768005 C353.26215942 244.99768005 353.59215942 250.60768005 353.93215942 256.38768005 C355.78840942 254.4850238 357.64465942 252.58236755 359.55715942 250.62205505 C361.37843239 248.7695136 363.20320878 246.92049087 365.02835083 245.07176208 C366.28693304 243.79316651 367.54188955 242.51099076 368.79299927 241.2250824 C370.60060249 239.36850825 372.42121213 237.52555471 374.24465942 235.68455505 C375.06861206 234.8296347 375.06861206 234.8296347 375.90921021 233.95744324 C381.98271149 227.88054362 388.89179667 224.34332646 397.55715942 224.07518005 C409.33444817 224.38115697 416.02292517 230.62050496 423.86965942 238.82518005 C424.80912366 239.77762704 425.74987302 240.72880818 426.69192505 241.67869568 C434.09095588 249.24867884 437.99865882 254.31008219 438.30715942 265.01268005 C438.3561438 266.15994568 438.40512817 267.3072113 438.45559692 268.48924255 C437.20550799 277.79960637 431.79302923 284.23613698 425.12844849 290.45750427 C424.35879257 291.19737076 423.58913666 291.93723724 422.79615784 292.69952393 C421.13709597 294.29308685 419.47273432 295.88114728 417.8035965 297.46415329 C415.15612206 299.98198985 412.5315625 302.52167051 409.91281128 305.0693512 C402.47114007 312.30747739 395.01607882 319.53017363 387.48538208 326.67576599 C382.86685652 331.06126822 378.29714535 335.49291878 373.7547226 339.95714188 C372.02566854 341.63885953 370.27942863 343.30310839 368.51554108 344.94825363 C356.98620099 355.44124582 356.98620099 355.44124582 352.41334152 369.82202339 C352.33310735 373.72978681 352.52765907 377.49913663 352.93215942 381.38768005 C353.71590942 381.67643005 354.49965942 381.96518005 355.30715942 382.26268005 C357.93215942 383.38768005 357.93215942 383.38768005 359.93215942 385.38768005 C360.14166328 388.4030127 360.22578547 391.32720459 360.22268677 394.34446716 C360.22940399 395.27318634 360.23612122 396.20190552 360.24304199 397.1587677 C360.26211235 400.24424022 360.26595189 403.32949592 360.26809692 406.4150238 C360.27452274 408.56057831 360.28125094 410.70613192 360.28826904 412.85168457 C360.30026732 417.36020434 360.30394767 421.86864739 360.30276489 426.37718201 C360.30256251 432.13371683 360.32976946 437.88975345 360.36430931 443.64617062 C360.38664265 448.08422059 360.39060032 452.52215237 360.38954544 456.96025276 C360.39189538 459.08077765 360.40068442 461.20130609 360.41621017 463.32177544 C360.50892496 477.30366573 360.39176305 489.0944988 350.97903442 500.31736755 C341.90729847 509.49297835 332.51145547 512.70499244 319.81815922 512.79357237 C318.5133919 512.78756232 317.20862458 512.78155228 315.86431885 512.77536011 C314.44545537 512.7795381 313.02659523 512.78501817 311.60774124 512.79167992 C307.72710356 512.80609231 303.84667902 512.80190305 299.96602988 512.79451311 C295.77368936 512.78977327 291.58139441 512.80229851 287.3890686 512.81253052 C279.18295257 512.82970803 270.97691314 512.83056068 262.7707838 512.82531761 C256.09917385 512.82127264 249.4275865 512.82272337 242.75597763 512.82806587 C241.80564873 512.82881429 240.85531982 512.82956272 239.87619307 512.83033382 C237.94546191 512.83186533 236.01473076 512.83340368 234.08399962 512.83494879 C215.98647608 512.8486701 197.8889958 512.84323878 179.79147325 512.83176357 C163.24512589 512.82183216 146.69889036 512.83477094 130.15256025 512.85869776 C113.151174 512.88309686 96.14983983 512.8926946 79.14843643 512.88604504 C69.60809125 512.88255455 60.06783207 512.88477363 50.52750015 512.90229607 C42.40583284 512.91702819 34.28431209 512.9176403 26.16264762 512.90022516 C22.02148564 512.89172099 17.88058534 512.88955119 13.7394371 512.90487671 C9.94321537 512.91875144 6.14747883 512.91392539 2.35128497 512.89463747 C0.3387313 512.88911797 -1.67384724 512.90312574 -3.68635356 512.91799158 C-15.63401272 512.82145445 -25.43353379 509.92423997 -34.06784058 501.38768005 C-43.92060907 489.80971863 -44.50828617 478.7281191 -44.45552063 464.21974182 C-44.45969589 462.35540092 -44.46517446 460.49106255 -44.47184044 458.62672889 C-44.48628853 453.51473763 -44.48205227 448.40290769 -44.47467363 443.29090762 C-44.46994271 437.77340607 -44.48245116 432.25593945 -44.49269104 426.7384491 C-44.50988588 415.93348362 -44.51071761 405.12857627 -44.50547814 394.32360066 C-44.50143645 385.54100828 -44.50287998 376.75843308 -44.50822639 367.97584152 C-44.50897482 366.7257736 -44.50972324 365.47570568 -44.51049434 364.18775692 C-44.51202582 361.64822976 -44.51356417 359.10870261 -44.51510931 356.56917547 C-44.52493777 339.51877742 -44.52910214 322.46838518 -44.52148342 305.41798592 C-44.52118625 304.75150463 -44.52088907 304.08502333 -44.5205829 303.39834564 C-44.51813406 297.98634066 -44.51552242 292.57433576 -44.51289876 287.16233086 C-44.50279728 266.05431157 -44.51115093 244.94637184 -44.53439331 223.83836365 C-44.56047658 200.11207359 -44.57326146 176.38582491 -44.56620556 152.65951622 C-44.56271212 140.10104584 -44.56495369 127.54264078 -44.58245659 114.98418045 C-44.59717177 104.29335939 -44.59782288 93.60264966 -44.58038568 82.9118308 C-44.57186773 77.45831819 -44.56974573 72.00500451 -44.58503723 66.55150223 C-44.59887032 61.55624713 -44.59413867 56.56136165 -44.574798 51.566128 C-44.57103348 49.76204205 -44.57397296 47.95792659 -44.58440965 46.1538669 C-44.65888508 32.29110199 -43.24887577 20.68529199 -33.06784058 10.38768005 C-22.69429981 1.55986556 -13.3711237 -0.06159034 0 0 Z " fill="#020101" transform="translate(59.067840576171875,-0.3876800537109375)"/>
<path d="M0 0 C107.91 0 215.82 0 327 0 C327 18.15 327 36.3 327 55 C318.18063721 55.00410889 309.36127441 55.00821777 300.2746582 55.01245117 C272.06909455 55.02910236 243.86361438 55.07025208 215.65810372 55.12685562 C211.27833579 55.13562257 206.89856745 55.14417234 202.51879883 55.15258789 C201.21087689 55.15510648 201.21087689 55.15510648 199.87653228 55.15767596 C185.75054381 55.18435947 171.62459592 55.193442 157.49858484 55.19604143 C143.00835484 55.19909885 128.51824233 55.22102101 114.02806538 55.26052457 C105.08387909 55.28431182 96.1399272 55.29331287 87.1957136 55.28351311 C81.06569491 55.27820507 74.93588663 55.2911899 68.80592785 55.3186629 C65.26701553 55.33398002 61.72857397 55.34113242 58.18964767 55.32659721 C54.35506099 55.31105811 50.52125926 55.33398911 46.6867218 55.36076355 C45.00433276 55.34475366 45.00433276 55.34475366 43.28795606 55.32842034 C37.1023176 55.39361574 37.1023176 55.39361574 31.77348614 58.34463978 C29.72131106 60.90111678 29.72131106 60.90111678 29.9375 64.125 C31.16427527 67.44450955 32.01051574 68.2133049 35 70 C37.41084725 70.44879881 37.41084725 70.44879881 40.05246353 70.38476086 C41.07757923 70.3942174 42.10269494 70.40367394 43.15887475 70.41341704 C44.28338029 70.40856947 45.40788582 70.40372189 46.56646729 70.39872742 C48.36018977 70.40869766 48.36018977 70.40869766 50.19014907 70.41886932 C53.51052994 70.43431316 56.83043272 70.43633413 60.15081549 70.43273985 C63.73091098 70.43211688 67.31093096 70.44872778 70.89099121 70.46325684 C77.09404303 70.48606684 83.2970386 70.49793207 89.5001297 70.50238609 C98.46876753 70.50884165 107.43730359 70.53176853 116.40590045 70.55872939 C130.95645839 70.60202247 145.50701205 70.63197481 160.05761719 70.65356445 C174.19305526 70.6745666 188.3284583 70.701835 202.46386719 70.73754883 C203.335019 70.73974765 204.20617082 70.74194648 205.10372117 70.74421193 C209.47398771 70.7552814 213.84425391 70.76647424 218.21451998 70.77772844 C254.47631783 70.87094922 290.73813041 70.94170938 327 71 C327 83.21 327 95.42 327 108 C323.36543289 108.00586624 319.73086578 108.01173248 315.98616028 108.01777649 C282.670828 108.07293041 249.35555312 108.14287392 216.04028599 108.22898628 C211.67553926 108.2402547 207.3107922 108.25139311 202.94604492 108.26245117 C201.6426089 108.2657567 201.6426089 108.2657567 200.31284084 108.269129 C186.23536663 108.30451943 172.15789248 108.3293737 158.08039025 108.35034702 C143.63990198 108.37209518 129.19947153 108.40513619 114.75903243 108.44870156 C105.84561312 108.47523529 96.9322659 108.49291797 88.01880904 108.49934604 C81.90985879 108.50459467 75.80099929 108.52079391 69.69209764 108.54566566 C66.16544489 108.55969876 62.63895468 108.56884477 59.11227226 108.56500816 C55.2909786 108.56097704 51.46999897 108.57997506 47.64875793 108.60127258 C46.53105619 108.59642501 45.41335444 108.59157743 44.26178294 108.58658296 C37.0748382 108.51406964 37.0748382 108.51406964 31 112 C29.95730203 115.50048604 29.48609959 118.59372407 31 122 C33.95144801 122.983816 35.86794644 123.12946417 38.94503307 123.1386652 C39.97164112 123.14413964 40.99824917 123.14961409 42.05596656 123.15525442 C43.18727588 123.15623253 44.31858521 123.15721064 45.48417664 123.15821838 C46.68322075 123.16315636 47.88226487 123.16809434 49.11764365 123.17318195 C52.45153583 123.18591167 55.78538605 123.1941858 59.11929286 123.20060861 C62.71233293 123.20860588 66.3053517 123.22230597 69.89837646 123.23532104 C76.12544272 123.25709335 82.35251113 123.27523509 88.57959557 123.29092598 C97.58296542 123.31361773 106.5863117 123.34176152 115.58966158 123.37124526 C130.19623859 123.41892969 144.80282524 123.46219157 159.40942383 123.50268555 C173.60018666 123.54203614 187.79094093 123.58346132 201.98168945 123.62768555 C202.85609099 123.63040982 203.73049252 123.63313409 204.63139107 123.63594092 C209.01791215 123.64962032 213.4044331 123.66334061 217.79095399 123.67708123 C254.19395171 123.79105937 290.59696803 123.89759379 327 124 C327 136.54 327 149.08 327 162 C321.50390327 162.0154612 321.50390327 162.0154612 315.89677429 162.03123474 C282.32243047 162.12614155 248.74810409 162.22594663 215.17379079 162.33111694 C210.7764238 162.34488707 206.37905667 162.35861408 201.98168945 162.37231445 C200.66849466 162.37640691 200.66849466 162.37640691 199.32877067 162.38058204 C185.14001238 162.42469717 170.9512461 162.46531697 156.76247384 162.50465261 C142.21127744 162.54507052 127.66009588 162.58922707 113.10892135 162.63687855 C104.12488203 162.66618048 95.14084385 162.69254111 86.15678523 162.71517897 C80.00209581 162.73096637 73.84742456 162.75037425 67.6927553 162.77266841 C64.13804183 162.78543657 60.58334236 162.79657088 57.02861214 162.80341911 C53.18044142 162.81087422 49.33232246 162.82593395 45.48417664 162.84178162 C44.35286731 162.84275972 43.22155798 162.84373783 42.05596656 162.84474558 C41.02935851 162.85022002 40.00275046 162.85569446 38.94503307 162.8613348 C37.61164513 162.86532186 37.61164513 162.86532186 36.25132006 162.86938947 C33.83040194 162.91167081 33.83040194 162.91167081 31 164 C30.19610963 167.98673685 30.19610963 167.98673685 30 172 C31.84420303 174.4801351 33.26282327 175.63141163 36 177 C37.58933391 177.09847961 39.18275837 177.13385647 40.77513313 177.1386652 C42.29638335 177.14687687 42.29638335 177.14687687 43.8483659 177.15525442 C45.53218989 177.15672158 45.53218989 177.15672158 47.25003052 177.15821838 C48.43596955 177.16315636 49.62190859 177.16809434 50.84378517 177.17318195 C54.14573208 177.18592523 57.44763652 177.19419097 60.74959826 177.20060861 C64.30652758 177.20859802 67.86343531 177.22230079 71.42034912 177.23532104 C77.58631847 177.25710455 83.75228998 177.27524217 89.91827774 177.29092598 C98.83333651 177.31360756 107.7483714 177.34175274 116.66340993 177.37124526 C131.12634478 177.41894219 145.58928939 177.46220067 160.05224609 177.50268555 C174.10433715 177.54202979 188.15641953 177.58345344 202.20849609 177.62768555 C203.07419936 177.63040982 203.93990263 177.63313409 204.83183934 177.63594092 C209.17467884 177.64962022 213.51751821 177.66334053 217.86035752 177.67708123 C253.90688701 177.791079 289.953435 177.89788104 326 178 C330.49008006 210.5075464 330.49008006 210.5075464 321.46749878 222.79171753 C315.83214885 229.89538982 309.09361723 236.03228577 302.40288806 242.11816669 C299.04807086 245.21086132 295.8044844 248.41646743 292.5471344 251.61109924 C286.3817831 257.62662411 280.13165266 263.54455622 273.8406468 269.42826468 C264.62139415 278.05819966 255.53371784 286.82504396 246.45195866 295.59923649 C245.10226863 296.9029283 243.75256495 298.20660597 242.40284729 299.51026917 C241.74339538 300.14763301 241.08394347 300.78499686 240.40450817 301.44167477 C236.52085718 305.18901186 232.61096234 308.90589518 228.67386901 312.59702766 C226.2215915 314.90018092 223.78335373 317.21786864 221.3471241 319.53797722 C220.22621163 320.59854387 219.09901399 321.65251911 217.96473694 322.69878006 C210.07948989 329.97767575 205.23029453 337.12972271 201 347 C200.30867952 348.52177496 199.6167742 350.04328481 198.92358398 351.56420898 C198.36005921 352.87296793 197.80084328 354.18359114 197.24609375 355.49609375 C196.93728775 356.21757095 196.62848175 356.93904816 196.31031799 357.68238831 C195.66913704 359.18266268 195.02995869 360.68379455 194.39282227 362.18579102 C193.43906178 364.43381887 192.47887276 366.67901309 191.51757812 368.92382812 C190.8850393 370.40608902 190.25286584 371.88850589 189.62109375 373.37109375 C189.34591415 374.01533798 189.07073456 374.65958221 188.78721619 375.323349 C186.75421897 380.12167731 184.81003049 384.9536186 182.87831116 389.79335022 C182.6009237 390.48760369 182.32353623 391.18185716 182.03774309 391.89714861 C181.35822117 393.59798954 180.67907285 395.29897972 180 397 C159.14639733 397.07012373 138.29281414 397.12300468 117.43911743 397.15543652 C107.75608373 397.17089635 98.07312335 397.191969 88.39013672 397.22631836 C79.94909522 397.25624775 71.50810683 397.27558143 63.06701374 397.28226548 C58.59873695 397.28617174 54.13061207 397.2953336 49.66238403 397.31719017 C45.45336427 397.33761125 41.24455845 397.34382247 37.03549385 397.33932304 C35.49401244 397.34014573 33.95252358 397.34607789 32.41108513 397.35761642 C23.02238334 397.42442589 15.70639266 397.25827184 7.75 391.75 C2.9777151 386.9777151 0.16574563 381.89752631 -0.1241985 375.07945895 C-0.12381878 373.93270355 -0.12343906 372.78594816 -0.12304783 371.6044426 C-0.12420167 370.96162197 -0.12535552 370.31880134 -0.12654433 369.65650129 C-0.12919965 367.49385503 -0.12469774 365.33128262 -0.12025452 363.16864014 C-0.12069044 361.6060132 -0.12156574 360.04338633 -0.12284368 358.48075986 C-0.12508449 354.17999305 -0.12107298 349.87925104 -0.11606562 345.5784874 C-0.1117554 340.94320424 -0.11320795 336.30792253 -0.1139679 331.67263794 C-0.11449277 323.63942889 -0.1113498 315.60622795 -0.10573006 307.57302094 C-0.09761009 295.95828849 -0.09499932 284.34355998 -0.09374207 272.728825 C-0.09155233 253.88562069 -0.08489436 235.04242071 -0.07543945 216.19921875 C-0.06626331 197.89257834 -0.05919493 179.58593911 -0.05493164 161.27929688 C-0.05466364 160.13975272 -0.05439565 159.00020857 -0.05411953 157.82613277 C-0.05204016 148.91442047 -0.05008322 140.00270813 -0.04816496 131.09099579 C-0.03872779 87.39399322 -0.01861031 43.69700148 0 0 Z " fill="#E9F1FE" transform="translate(30,100)"/>
<path d="M0 0 C1.77400246 -0.01059839 1.77400246 -0.01059839 3.58384335 -0.02141088 C4.88440226 -0.0189958 6.18496117 -0.01658071 7.52493095 -0.01409245 C8.9195665 -0.01854418 10.31419951 -0.02385801 11.70882881 -0.02996117 C15.54563825 -0.04415991 19.38236675 -0.04580411 23.2191987 -0.04536426 C27.35570805 -0.04701086 31.4921839 -0.06007457 35.62867546 -0.07155704 C44.67634166 -0.09442005 53.72398442 -0.1023293 62.77167559 -0.10738349 C68.42154636 -0.11063951 74.07141032 -0.11716148 79.72127724 -0.12438488 C95.36491298 -0.14395381 111.00854239 -0.16035587 126.65219116 -0.16326141 C127.65355527 -0.16344898 128.65491938 -0.16363655 129.68662786 -0.16382981 C131.71664389 -0.16419606 133.74665992 -0.16455976 135.77667595 -0.16492092 C136.78437861 -0.16510373 137.79208126 -0.16528654 138.83032036 -0.16547489 C140.3437203 -0.16574572 140.3437203 -0.16574572 141.88769399 -0.16602201 C158.23135536 -0.16956267 174.5748849 -0.19657696 190.91850056 -0.23397278 C207.6993667 -0.27206162 224.48016744 -0.29141894 241.26107776 -0.29172093 C250.68244967 -0.29230543 260.10366437 -0.30079241 269.5249958 -0.32971859 C277.54874339 -0.35424037 285.57227647 -0.36151012 293.59605141 -0.34647106 C297.68851355 -0.33930495 301.78055219 -0.34014626 305.87296677 -0.36288166 C309.62377271 -0.38351913 313.37383086 -0.3808277 317.12462912 -0.36000682 C319.11531386 -0.35487674 321.10601589 -0.37425506 323.09660256 -0.39466852 C330.79665572 -0.32277329 336.8822778 0.69022442 343.24145317 5.26006222 C359.69005116 22.65157775 351.24145317 44.32435517 351.24145317 69.26006222 C227.82145317 69.26006222 104.40145317 69.26006222 -22.75854683 69.26006222 C-22.75854683 18.26006222 -22.75854683 18.26006222 -17.75854683 8.26006222 C-15.0117122 5.89355854 -12.80189605 4.05097945 -9.75854683 2.26006222 C-9.17679196 1.91157834 -8.59503708 1.56309447 -7.99565327 1.20405048 C-5.19863638 0.02379769 -3.03550209 0.00578967 0 0 Z " fill="#FECF63" transform="translate(52.75854682922363,14.739937782287598)"/>
<path d="M0 0 C123.42 0 246.84 0 374 0 C374.33 44.55 374.66 89.1 375 135 C377.44296171 139.03806306 377.44296171 139.03806306 380.1875 139.75 C380.785625 139.8325 381.38375 139.915 382 140 C383.98341778 146.91761504 384.51994445 153.13727255 382 160 C375.64911897 170.34609812 365.35298734 178.66113493 356.56237793 186.86920166 C353.21667199 190.0156928 349.93126323 193.22392129 346.63867188 196.42578125 C341.84270123 201.07144783 337.02785452 205.69567592 332.16235352 210.26855469 C331.3963105 210.99285927 331.3963105 210.99285927 330.61479187 211.73179626 C327.11851747 215 327.11851747 215 326 215 C326 203.12 326 191.24 326 179 C322.38018158 179.00888245 318.76036316 179.01776489 315.03085327 179.0269165 C281.8451009 179.10649353 248.65936043 179.16621867 215.47353359 179.20426132 C211.12509643 179.20926421 206.77665949 179.2144415 202.42822266 179.21972656 C201.56251823 179.2207758 200.69681381 179.22182505 199.80487593 179.22290608 C185.78299863 179.24031671 171.76118686 179.27185802 157.73934846 179.30861118 C143.35426571 179.34600232 128.96921731 179.36823198 114.58408797 179.37635398 C105.70591823 179.38184555 96.82793369 179.39919722 87.94982095 179.43166587 C81.86378294 179.4527912 75.77784083 179.45920455 69.69176881 179.45400551 C66.17908622 179.45144062 62.6667275 179.4554036 59.15410233 179.4768219 C55.3462975 179.49987061 51.53891563 179.49196024 47.73104858 179.48101807 C46.62015063 179.49266943 45.50925267 179.5043208 44.36469114 179.51632524 C38.31741805 179.46920637 34.51226047 179.21109704 30 175 C28.8125 171.5625 28.8125 171.5625 29 168 C30.7789259 165.31492329 30.7789259 165.31492329 34 163 C37.90471388 162.25916093 41.76078554 162.34743297 45.72468567 162.39872742 C46.92543863 162.39445529 48.1261916 162.39018317 49.36333102 162.38578159 C52.69324438 162.37896917 56.02168844 162.39459303 59.3514241 162.41967189 C62.94305306 162.44126422 66.53463665 162.43395735 70.12631226 162.43016052 C76.34800277 162.42753874 82.56943111 162.44322614 88.79105568 162.47134972 C97.786434 162.51198501 106.78168555 162.52500694 115.77714571 162.53128967 C130.37160325 162.54223283 144.96592106 162.57550756 159.56030273 162.62280273 C173.73737896 162.6686978 187.91441722 162.70408996 202.09155273 162.7253418 C203.40236686 162.72731222 203.40236686 162.72731222 204.73966209 162.72932246 C209.12364155 162.73584764 213.50762129 162.74216618 217.8916012 162.74838197 C254.2611701 162.80021563 290.63056503 162.88965751 327 163 C327 150.46 327 137.92 327 125 C323.33815613 125.00888245 319.67631226 125.01776489 315.90350342 125.0269165 C282.34397493 125.10646852 248.78445819 125.16620635 215.22485612 125.20426132 C210.8287776 125.2092643 206.43269929 125.21444158 202.03662109 125.21972656 C201.16142021 125.2207758 200.28621932 125.22182505 199.3844972 125.22290608 C185.20283931 125.24032377 171.02124612 125.27186895 156.83962664 125.30861118 C142.29409174 125.3459827 127.74859078 125.36822782 113.20300984 125.37635398 C104.2234941 125.38184964 95.24416118 125.39922335 86.26470169 125.43166587 C80.11186626 125.45276702 73.9591257 125.45921006 67.80625668 125.45400551 C64.25331814 125.45143683 60.70069963 125.45544645 57.14781761 125.4768219 C53.29990243 125.49980394 49.45240766 125.49197835 45.60443115 125.48101807 C44.47603467 125.49266943 43.34763818 125.5043208 42.18504786 125.51632524 C41.15644877 125.50836104 40.12784967 125.50039685 39.0680809 125.49219131 C38.17953533 125.4937102 37.29098976 125.49522908 36.37551856 125.49679399 C33.20238521 124.83319422 32.01824972 123.48332478 30 121 C28.9375 118.0625 28.9375 118.0625 29 115 C31.15385669 112.38044456 32.95946594 110.52026703 36 109 C37.59469449 108.90632413 39.19330717 108.87626539 40.7907505 108.87695217 C42.31722582 108.8739656 42.31722582 108.8739656 43.87453902 108.87091869 C45.00097929 108.87383153 46.12741956 108.87674437 47.28799438 108.87974548 C48.47801697 108.87889106 49.66803956 108.87803663 50.89412344 108.87715632 C54.20748457 108.87578962 57.52078717 108.87893148 60.83414125 108.88393438 C64.40332828 108.8882399 67.97251338 108.88679238 71.54170227 108.8860321 C77.72896379 108.88550693 83.91621479 108.88865302 90.10347366 108.89426994 C99.04928742 108.90238587 107.99509608 108.90500026 116.94091313 108.90625793 C131.4537757 108.90844831 145.96663266 108.915108 160.47949219 108.92456055 C174.58007784 108.93373504 188.68066197 108.94081569 202.78125 108.94506836 C203.64994027 108.94533108 204.51863053 108.94559381 205.41364475 108.94586449 C209.7714682 108.9471695 214.12929167 108.94843321 218.48711514 108.94967639 C254.65808088 108.96004855 290.82903964 108.97794106 327 109 C327 96.79 327 84.58 327 72 C323.35290482 72.00888245 319.70580963 72.01776489 315.94819641 72.0269165 C282.51818621 72.10648085 249.08818782 72.16621242 215.65810372 72.20426132 C211.27833524 72.20926426 206.89856698 72.21444154 202.51879883 72.21972656 C201.21087689 72.22130043 201.21087689 72.22130043 199.87653228 72.22290608 C185.75051528 72.24032029 171.62456327 72.27186356 157.49858484 72.30861118 C143.00841574 72.34599237 128.51828072 72.36822987 114.02806538 72.37635398 C105.08386805 72.38184762 96.1398544 72.39921047 87.1957136 72.43166587 C81.06576452 72.45277894 74.93591067 72.45920734 68.80592785 72.45400551 C65.26704171 72.4514387 61.72847695 72.45542535 58.18964767 72.4768219 C54.35521928 72.49983677 50.52121186 72.49196941 46.6867218 72.48101807 C45.00433276 72.49849512 45.00433276 72.49849512 43.28795606 72.51632524 C35.78505786 72.4581477 35.78505786 72.4581477 31.83598614 70.15353012 C29.43952749 67.34259066 28.92463018 65.69312125 29 62 C30.77039449 59.25283613 32.06291844 57.46854078 35 56 C36.59990622 55.90630214 38.20372046 55.87626552 39.80636787 55.87695217 C40.82750148 55.87496112 41.84863508 55.87297007 42.90071213 55.87091869 C44.03104335 55.87383153 45.16137457 55.87674437 46.32595825 55.87974548 C48.11711746 55.87846385 48.11711746 55.87846385 49.9444617 55.87715632 C53.26922433 55.87578961 56.59392864 55.87893151 59.91868424 55.88393438 C63.50014132 55.88823987 67.08159649 55.88679238 70.66305542 55.8860321 C76.87159785 55.88550693 83.08012979 55.88865303 89.28866959 55.89426994 C98.26525243 55.90238585 107.2418302 55.90500026 116.21841632 55.90625793 C130.78119318 55.90844831 145.34396445 55.91510801 159.90673828 55.92456055 C174.05582654 55.93373503 188.20491328 55.94081569 202.35400391 55.94506836 C203.22568117 55.94533108 204.09735843 55.94559381 204.99545015 55.94586449 C209.36825768 55.9471695 213.74106522 55.94843321 218.11387277 55.94967639 C254.40925348 55.96004856 290.70462385 55.97848663 327 56 C327 37.85 327 19.7 327 1 C219.09 1 111.18 1 0 1 C0 0.67 0 0.34 0 0 Z " fill="#C2D6F0" transform="translate(30,99)"/>
<path d="M0 0 C1.10707468 0.94070669 2.21296786 1.88280392 3.31837463 2.82546997 C3.93434793 3.34994783 4.55032122 3.8744257 5.18496037 4.41479683 C7.81323675 6.71025748 10.25359675 9.14203515 12.71484375 11.6171875 C13.21544815 12.11920685 13.71605255 12.6212262 14.23182678 13.13845825 C15.80278598 14.71493671 17.37019877 16.29488573 18.9375 17.875 C20.01343727 18.95596274 21.08960731 20.03669383 22.16601562 21.1171875 C24.78003292 23.74212641 27.39088596 26.37018628 30 29 C28.38190358 33.0595972 25.49333059 35.78013632 22.44454956 38.79595947 C21.87114338 39.3710745 21.2977372 39.94618953 20.70695508 40.53873229 C18.78315466 42.46582859 16.85229003 44.38568669 14.92138672 46.30566406 C13.54136938 47.68511731 12.16179219 49.06501099 10.78262329 50.4453125 C7.03526076 54.19324962 3.28175702 57.93498172 -0.47286081 61.67564869 C-4.39488887 65.58518719 -8.3112663 69.50037772 -12.22824097 73.41497803 C-19.64736167 80.82787875 -27.07156659 88.23566581 -34.49760139 95.64163947 C-42.95124321 104.07293844 -51.39921707 112.50990677 -59.84671426 120.94736147 C-77.22483334 138.30456681 -94.61007552 155.65462291 -112 173 C-116.21676405 171.07139535 -119.08321791 168.17029862 -122.296875 164.8984375 C-123.18732513 164.00374252 -123.18732513 164.00374252 -124.09576416 163.0909729 C-125.98526627 161.1903019 -127.86768392 159.28278526 -129.75 157.375 C-131.03209065 156.08287532 -132.31463761 154.79120324 -133.59765625 153.5 C-136.73708432 150.33855521 -139.87017801 147.1709539 -143 144 C-139.19915158 139.46078495 -135.27491215 135.13094347 -131.0774231 130.95716858 C-130.23056326 130.10902711 -130.23056326 130.10902711 -129.36659515 129.24375147 C-127.49431664 127.36983981 -125.61851253 125.49949961 -123.74267578 123.62915039 C-122.39183931 122.27859629 -121.04122358 120.92782136 -119.69081116 119.57684326 C-116.03855963 115.92430569 -112.38324056 112.27485219 -108.72735071 108.62595677 C-104.90187803 104.80674973 -101.07925085 100.98469679 -97.25631714 97.16294861 C-90.02303933 89.93277466 -82.78721694 82.7051529 -75.55047023 75.47845119 C-67.30908941 67.24826087 -59.07055941 59.01521936 -50.83226418 50.78194058 C-33.8913398 33.85145918 -16.94684971 16.9245502 0 0 Z " fill="#E177B0" transform="translate(400,291)"/>
<path d="M0 0 C0 6.93 0 13.86 0 21 C-2.475 21.99 -2.475 21.99 -5 23 C-7.62070601 25.62070601 -7.23853434 27.47199569 -7.25675964 31.03965759 C-7.25106461 31.88637527 -7.24536957 32.73309296 -7.23950195 33.60546875 C-7.24151611 34.49677994 -7.24353027 35.38809113 -7.24560547 36.30641174 C-7.24915764 38.24728078 -7.24837571 40.18816136 -7.24382973 42.12902832 C-7.23824601 45.20692279 -7.247382 48.28443899 -7.2610321 51.36230469 C-7.29818523 60.11541303 -7.31674253 68.86839711 -7.30541992 77.62158203 C-7.29954616 82.97332554 -7.31794703 88.32454192 -7.35130882 93.67617798 C-7.35923428 95.71097337 -7.35802482 97.74582665 -7.34728432 99.78060913 C-7.24028648 120.97867159 -7.24028648 120.97867159 -13 128 C-18.42223557 133.05397256 -23.78103858 136.25571651 -31.34675598 136.24050903 C-32.40539856 136.24325836 -33.46404114 136.24600769 -34.55476379 136.24884033 C-35.70562973 136.24164978 -36.85649567 136.23445923 -38.04223633 136.22705078 C-39.87212601 136.22748886 -39.87212601 136.22748886 -41.73898315 136.22793579 C-45.07545512 136.22678282 -48.41167829 136.21676603 -51.74810624 136.20278788 C-55.23812515 136.19026861 -58.72814753 136.18910908 -62.21818542 136.18673706 C-68.82312866 136.1805258 -75.42800554 136.16411979 -82.03291959 136.14403808 C-89.55404391 136.12166805 -97.07517143 136.11068288 -104.59632075 136.10064721 C-120.06425224 136.07975324 -135.53211755 136.04458417 -151 136 C-148.75555668 133.75555668 -147.06359562 133.0938599 -144.125 131.93359375 C-143.13886719 131.52947266 -142.15273438 131.12535156 -141.13671875 130.70898438 C-139.08189384 129.87605099 -137.02209854 129.05525225 -134.95703125 128.24804688 C-122.41693864 123.04869412 -113.75130911 112.89666022 -104.32397461 103.42163086 C-103.19135629 102.28708846 -102.05850646 101.15277715 -100.92544556 100.01867676 C-98.50742719 97.5975234 -96.09096424 95.17483256 -93.67573357 92.75089836 C-89.85908253 88.92063028 -86.0385349 85.09426454 -82.21742249 81.26844788 C-74.12113051 73.16110848 -66.02911442 65.04950746 -57.9375 56.9375 C-49.16917472 48.14713774 -40.40009946 39.35753091 -31.62617499 30.57275683 C-27.82410169 26.76569155 -24.02448131 22.95619978 -20.22670066 19.14485252 C-17.8747994 16.78552499 -15.52085783 14.42824147 -13.16633987 12.07152557 C-12.07094234 10.97424688 -10.97641404 9.87609971 -9.88279533 8.77704811 C-8.39707054 7.28417124 -6.90835158 5.79434771 -5.41880798 4.30528259 C-4.58466842 3.46892241 -3.75052885 2.63256224 -2.89111233 1.77085781 C-1 0 -1 0 0 0 Z " fill="#C8DEFB" transform="translate(412,361)"/>
<path d="M0 0 C1.24693333 -0.00568326 2.49386666 -0.01136651 3.77858585 -0.01722199 C7.23731284 -0.03228205 10.69529948 -0.01615293 14.15396821 0.00508463 C17.88475364 0.02255978 21.615465 0.01119816 25.3462677 0.00341797 C32.65363992 -0.00725908 39.96072419 0.00870156 47.26805253 0.03355623 C55.77464376 0.0614688 64.28117647 0.06282916 72.78780591 0.06299924 C87.96333023 0.06418688 103.13872216 0.0891682 118.31419373 0.12767029 C133.04598071 0.1650226 147.77767142 0.18626623 162.50950623 0.18919373 C163.41696465 0.18937654 164.32442307 0.18955935 165.25938023 0.1897477 C166.61819515 0.19001615 166.61819515 0.19001615 168.00446087 0.19029003 C169.82831196 0.19065545 171.65216305 0.19102782 173.47601414 0.1914072 C174.37543404 0.19159272 175.27485395 0.19177823 176.201529 0.19196937 C190.23265229 0.19553835 204.26376068 0.21398843 218.29486885 0.23390045 C223.38343523 0.24092625 228.47199809 0.24570711 233.56056828 0.2488618 C241.63108313 0.25390774 249.70153092 0.26531712 257.77201123 0.29016209 C261.46056761 0.30139533 265.14905803 0.30949784 268.83763313 0.30902863 C272.83191949 0.30866438 276.82605936 0.32378071 280.8203125 0.34057617 C281.99198977 0.33816109 283.16366703 0.335746 284.37084967 0.33325773 C285.43816602 0.34032333 286.50548237 0.34738892 287.60514164 0.35466862 C288.98857418 0.357595 288.98857418 0.357595 290.39995486 0.3605805 C293.01898292 0.6326303 294.63583335 1.20182892 296.84666443 2.61473083 C298.39253319 5.70646835 298.14025964 8.20902636 297.84666443 11.61473083 C295.84428468 14.21389265 294.64178973 15.4518412 291.39354283 16.11727816 C290.4682167 16.11846964 289.54289058 16.11966112 288.58952427 16.12088871 C287.51872452 16.1319364 286.44792478 16.14298409 285.34467655 16.15436655 C284.16910834 16.14612579 282.99354013 16.13788502 281.78234863 16.12939453 C279.90816329 16.13981282 279.90816329 16.13981282 277.99611562 16.15044159 C274.52578868 16.16911088 271.05588723 16.16274953 267.58554232 16.15228856 C263.8437943 16.14530855 260.10213476 16.16128534 256.3604126 16.17428589 C249.02923879 16.19595156 241.69822004 16.19579242 234.36702473 16.18766034 C228.40938588 16.18136568 222.45179233 16.18249247 216.49415398 16.18893242 C215.64687901 16.18983407 214.79960405 16.19073573 213.92665408 16.19166471 C212.20552686 16.19351587 210.48439965 16.19537843 208.76327246 16.19725227 C192.61547531 16.21383977 176.46776549 16.20510356 160.31997358 16.18826669 C145.54104973 16.17356984 130.76232919 16.18819618 115.98343153 16.21703685 C100.81510208 16.24641745 85.64686651 16.25740698 70.47850984 16.24785465 C68.76333679 16.24683208 67.04816373 16.24583747 65.33299065 16.24487114 C64.48905642 16.24439475 63.64512219 16.24391836 62.77561419 16.24342753 C56.82470869 16.24126158 50.87389188 16.25107714 44.92300606 16.26564217 C37.67130167 16.28314308 30.41985651 16.28308063 23.16816241 16.26029051 C19.46719439 16.2491275 15.76668344 16.24603162 12.06573486 16.26459122 C8.05609956 16.28444029 4.04758345 16.26565806 0.03796387 16.24291992 C-1.72204237 16.26067351 -1.72204237 16.26067351 -3.51760429 16.27878577 C-12.27342698 16.17745877 -12.27342698 16.17745877 -15.37622929 13.23171902 C-17.15333557 10.61473083 -17.15333557 10.61473083 -17.77833557 8.11473083 C-17.08385855 5.33682274 -16.06701227 3.65499 -13.98783886 1.68100345 C-9.82948609 -0.7359656 -4.66422663 -0.05264682 0 0 Z " fill="#020202" transform="translate(76.15333557128906,261.38526916503906)"/>
<path d="M0 0 C1.25101688 -0.00638882 2.50203377 -0.01277764 3.79096025 -0.01936007 C7.26107557 -0.03636081 10.73046991 -0.02216486 14.20054734 -0.00284529 C17.94361232 0.01257279 21.68658844 -0.00081776 25.42965698 -0.0105896 C32.76108304 -0.02512307 40.09223236 -0.01287558 47.42363221 0.00852364 C55.95821566 0.03252156 64.49273554 0.03082004 73.02734523 0.02821773 C88.25277967 0.02452674 103.47808361 0.04536079 118.70347595 0.07946777 C133.48378294 0.1125655 148.26395297 0.12672518 163.04429626 0.1204834 C179.13342413 0.11372234 195.2224946 0.11617107 211.31161398 0.1358428 C212.16204914 0.13688229 213.01248429 0.13792177 213.88869021 0.13899276 C215.59682652 0.14108368 217.30496281 0.14319465 219.01309906 0.14532593 C224.96495563 0.15222674 230.91679452 0.15288998 236.86865425 0.15144348 C244.11922486 0.15000512 251.36968366 0.15967007 258.62021715 0.18338984 C262.32095533 0.19526548 266.0215375 0.20236464 269.72229385 0.19655228 C273.72981857 0.19044397 277.73690313 0.2075143 281.74438477 0.22705078 C282.91995298 0.22172286 284.09552119 0.21639493 285.30671269 0.21090555 C286.91291231 0.22449051 286.91291231 0.22449051 288.5515604 0.23834991 C289.47688653 0.23992112 290.40221265 0.24149232 291.35557896 0.24311113 C294.33108529 0.70202818 295.6957104 1.48919892 297.80870056 3.62145996 C298.59025396 9.09233375 298.59025396 9.09233375 297.80870056 11.62145996 C295.59833076 14.22395595 293.75070658 15.47965872 290.34787452 15.99189091 C287.11101968 16.13993192 283.89559807 16.15411754 280.65536499 16.12939453 C279.40843166 16.13563449 278.16149833 16.14187446 276.87677914 16.14830351 C273.41817181 16.16500791 269.96000573 16.15674581 266.50139678 16.14435863 C262.7705998 16.13531497 259.03987914 16.14927438 255.30909729 16.16027832 C248.00178309 16.17807498 240.69463313 16.17421865 233.38731246 16.16262776 C227.44971337 16.15359889 221.51216034 16.15236706 215.57455635 16.15672302 C214.72990351 16.15733595 213.88525068 16.15794889 213.0150023 16.15858039 C211.29918788 16.15985927 209.58337347 16.16115613 207.86755908 16.16247076 C191.77462602 16.17387973 175.68178407 16.16075752 159.58886594 16.13926929 C145.7744846 16.12139477 131.96023769 16.1245047 118.14585876 16.14294434 C102.10946805 16.16433987 86.07315718 16.17278448 70.03675419 16.16049528 C68.32751248 16.15922106 66.61827075 16.15796358 64.90902901 16.15672302 C64.06801316 16.15610592 63.22699732 16.15548882 62.36049614 16.15485302 C56.42816161 16.1513964 50.49587765 16.15723509 44.56355095 16.16664124 C37.33675395 16.17784785 30.11013079 16.17484936 22.88335376 16.15351826 C19.19471577 16.14299016 15.50636784 16.13891566 11.81773186 16.15211487 C7.82334059 16.16619227 3.82942655 16.1494084 -0.16494751 16.12939453 C-1.33662478 16.13831742 -2.50830204 16.1472403 -3.71548468 16.15643358 C-4.78280103 16.14600259 -5.85011738 16.1355716 -6.94977665 16.12482452 C-7.87206501 16.12417511 -8.79435337 16.12352571 -9.74458987 16.12285662 C-12.96937947 15.46201042 -14.14832471 14.150058 -16.19129944 11.62145996 C-17.25379944 8.68395996 -17.25379944 8.68395996 -17.19129944 5.62145996 C-12.8966658 -0.91821951 -7.27171695 -0.07757891 0 0 Z " fill="#030303" transform="translate(76.19129943847656,208.3785400390625)"/>
<path d="M0 0 C1.07700889 -0.00782324 2.15401777 -0.01564648 3.26366329 -0.02370679 C4.45129048 -0.01701463 5.63891768 -0.01032246 6.86253357 -0.00342751 C8.12071427 -0.00810748 9.37889498 -0.01278745 10.67520237 -0.01760924 C14.17439833 -0.03017033 17.67334985 -0.02392586 21.17254686 -0.01465058 C24.94356501 -0.00788123 28.71454022 -0.01833079 32.48554993 -0.02659035 C39.87566459 -0.03995254 47.26568802 -0.03703891 54.6558063 -0.02835242 C60.6601987 -0.02158604 66.66456546 -0.02065462 72.66896057 -0.02392387 C73.52249919 -0.02438357 74.37603782 -0.02484327 75.25544125 -0.0253169 C76.98921546 -0.02627605 78.72298967 -0.02724869 80.45676386 -0.02823468 C96.7265694 -0.03679585 112.99632428 -0.02694304 129.26612151 -0.01083358 C143.23602838 0.00257027 157.20586047 0.00024238 171.17576599 -0.01358986 C187.38608374 -0.02963284 203.59635706 -0.03597181 219.80668163 -0.02675307 C221.53419176 -0.02579739 223.26170189 -0.02485428 224.98921204 -0.02392387 C226.26427033 -0.02322963 226.26427033 -0.02322963 227.56508738 -0.02252137 C233.56448497 -0.01992763 239.56385445 -0.02431073 245.56324768 -0.03136253 C252.87134022 -0.03976352 260.17933605 -0.03752704 267.48741746 -0.0215203 C271.21840505 -0.0136186 274.94923123 -0.01057808 278.68021774 -0.02046776 C282.71883296 -0.03101121 286.75703816 -0.01844962 290.79563904 -0.00342751 C292.57707983 -0.01346575 292.57707983 -0.01346575 294.39450932 -0.02370679 C296.01002264 -0.01197193 296.01002264 -0.01197193 297.65817261 0 C299.05747088 0.00073059 299.05747088 0.00073059 300.4850378 0.00147593 C303.26787325 0.44791648 304.15419751 1.15102152 305.8290863 3.37752342 C306.2275238 5.31502342 306.2275238 5.31502342 306.2040863 7.37752342 C306.21182068 8.05814842 306.21955505 8.73877342 306.2275238 9.44002342 C305.70050902 12.00276196 304.88458765 12.77385675 302.8290863 14.37752342 C300.48618847 14.75587225 300.48618847 14.75587225 297.66096592 14.76063347 C296.04637764 14.77421843 296.04637764 14.77421843 294.39917141 14.78807783 C293.21222634 14.78274991 292.02528127 14.77742198 290.80236816 14.7719326 C289.54489303 14.77802371 288.28741789 14.78411481 286.99183744 14.79039049 C283.49458676 14.80684238 279.99756072 14.80446154 276.50028479 14.79901552 C272.73128127 14.79635176 268.96233851 14.81086477 265.19335938 14.82311058 C257.80693162 14.84419434 250.4205823 14.84870376 243.03412802 14.8469227 C237.03212581 14.84561658 231.03014814 14.84941151 225.02815056 14.85684776 C223.3012177 14.85894689 221.57428483 14.86104449 219.84735197 14.86314058 C218.98788921 14.86418411 218.12842646 14.86522764 217.24291938 14.86630279 C200.97785925 14.88521694 184.71284419 14.88415132 168.44777762 14.87733346 C153.55818945 14.87175676 138.66877327 14.89258672 123.7792253 14.92569393 C108.5013285 14.95940177 93.22351416 14.97460292 77.94557947 14.9699769 C69.36387441 14.96772931 60.78232834 14.9730176 52.20065498 14.99786949 C44.8951101 15.01884515 37.58981138 15.02251197 30.28425653 15.0035699 C26.55505955 14.99438885 22.82632199 14.99334047 19.09716034 15.01392555 C15.05867533 15.03597205 11.02128082 15.01947623 6.98278809 14.99898338 C5.79807374 15.01150123 4.61335939 15.02401908 3.3927446 15.03691626 C-4.49511819 14.95061515 -4.49511819 14.95061515 -7.93442631 12.03399467 C-9.52335016 8.62034843 -9.32968036 6.93107453 -8.1709137 3.37752342 C-5.77107828 0.16049941 -3.91285096 0.00204293 0 0 Z " fill="#000000" transform="translate(68.17091369628906,155.6224765777588)"/>
<path d="M0 0 C0.86307941 -0.00482883 1.72615882 -0.00965766 2.61539215 -0.01463282 C5.50675588 -0.02590245 8.39723496 -0.00858566 11.28855896 0.00863647 C13.36160013 0.00649059 15.43464013 0.00261287 17.50767517 -0.00286865 C23.13775177 -0.01256734 28.76751157 0.00274762 34.39754987 0.02303743 C40.28536451 0.04059473 46.17316916 0.03708362 52.06100464 0.03631592 C61.94794522 0.03818931 71.83476307 0.0555592 81.72166443 0.08285522 C93.15915025 0.11431508 104.59650167 0.12485113 116.03402764 0.12338412 C127.02938681 0.12216419 138.02470213 0.13236876 149.02004814 0.14896774 C153.70298034 0.15603612 158.38589703 0.15969463 163.0688343 0.16075516 C168.5804729 0.1627616 174.09199829 0.17495142 179.60359955 0.19508743 C181.62890111 0.2009377 183.6542157 0.20338811 185.67952538 0.20223236 C188.43897779 0.20125341 191.19811145 0.21253783 193.95751953 0.22705078 C194.76344766 0.22395358 195.56937578 0.22085637 196.39972597 0.21766531 C203.39391281 0.27862781 203.39391281 0.27862781 206.41526794 2.49447632 C208.74276139 5.98571649 208.91826111 7.38669883 208.41526794 11.49447632 C206.93035126 13.65371609 206.93035126 13.65371609 204.41526794 15.49447632 C201.42060751 15.88933659 198.7935111 16.03915508 195.79893494 16.00914001 C194.48109615 16.01955831 194.48109615 16.01955831 193.13663435 16.03018707 C190.18693776 16.04851222 187.23804043 16.03817746 184.28831482 16.02792358 C182.17600907 16.03497922 180.06370839 16.04372273 177.95141602 16.05403137 C172.20974936 16.07657372 166.46835771 16.07357444 160.72666359 16.0647099 C155.93759324 16.05960799 151.14857494 16.06688602 146.35950994 16.07418197 C135.06473607 16.09119606 123.77009725 16.08759949 112.47532654 16.07089233 C100.81224392 16.0539638 89.14953536 16.06981243 77.48649359 16.10211521 C67.48130947 16.12877928 57.47624203 16.13609588 47.47102594 16.12760013 C41.49161637 16.12266234 35.512432 16.12493286 29.53305054 16.14538765 C23.91212248 16.16369503 18.29173424 16.1578464 12.67083549 16.13318825 C10.60521657 16.12816491 8.53955685 16.13170933 6.47397041 16.1443367 C3.6592201 16.16018571 0.84626524 16.14539389 -1.96839905 16.12266541 C-3.20166011 16.140419 -3.20166011 16.140419 -4.45983553 16.15853125 C-8.38700349 16.0938684 -10.1902361 15.85990447 -13.11934662 13.14662075 C-14.58473206 10.49447632 -14.58473206 10.49447632 -14.64723206 7.43197632 C-12.09798026 0.38404488 -6.74114116 -0.08628493 0 0 Z " fill="#070708" transform="translate(73.58473205566406,314.5055236816406)"/>
<path d="M0 0 C0.1163836 8.17176509 0.20496056 16.34317794 0.25906086 24.51556969 C0.28504016 28.31129829 0.32022007 32.10645558 0.37719727 35.90185547 C0.43194008 39.5718196 0.46150804 43.24123789 0.47438622 46.91157913 C0.48355116 48.30452684 0.50144661 49.69744817 0.52865028 51.09016037 C0.72421798 61.52737209 -0.67742754 68.49700798 -7.15072632 76.73805237 C-10.85901871 79.6819476 -13.83334964 79.67261565 -18.37036133 79.56762695 C-19.20014496 79.56835709 -20.02992859 79.56908722 -20.88485718 79.56983948 C-23.61792173 79.56636581 -26.34926578 79.5275166 -29.08203125 79.48828125 C-30.98059661 79.4789523 -32.87917403 79.47183658 -34.77775574 79.46684265 C-39.76754157 79.44777927 -44.75659622 79.39868403 -49.74609375 79.34332275 C-54.84039418 79.29211611 -59.9348131 79.26932558 -65.02929688 79.24414062 C-75.01985197 79.19056476 -85.00986511 79.10525981 -95 79 C-92.75555668 76.75555668 -91.06359562 76.0938599 -88.125 74.93359375 C-87.13886719 74.52947266 -86.15273438 74.12535156 -85.13671875 73.70898438 C-83.08189384 72.87605099 -81.02209854 72.05525225 -78.95703125 71.24804688 C-66.3935445 66.03899448 -57.67734635 55.81229527 -48.26246643 46.30706596 C-46.36526715 44.39222991 -44.46433427 42.48117063 -42.56237793 40.57106018 C-37.16353687 35.1479555 -31.77065488 29.71895158 -26.38183594 24.28588867 C-23.06773664 20.94509536 -19.74885249 17.60911888 -16.42692566 14.2761097 C-15.1650968 13.00806361 -13.90516979 11.73812209 -12.64717102 10.46627617 C-10.90011951 8.70012762 -9.14710401 6.94011535 -7.39257812 5.18139648 C-6.87313629 4.65319305 -6.35369446 4.12498962 -5.81851196 3.58078003 C-2.22790078 0 -2.22790078 0 0 0 Z " fill="#E8F0FD" transform="translate(356,418)"/>
<path d="M0 0 C5.51342732 -0.12452146 11.02601847 -0.21476997 16.54052734 -0.2746582 C18.41241737 -0.29964898 20.28421135 -0.33365373 22.15576172 -0.37719727 C42.84134855 -0.84607057 42.84134855 -0.84607057 50 5 C55.0149388 10.37680859 58.2643373 15.73603413 58.22705078 23.24926758 C58.22689972 24.26994827 58.22674866 25.29062897 58.22659302 26.34223938 C58.21627045 27.4319957 58.20594788 28.52175201 58.1953125 29.64453125 C58.1924826 30.7694548 58.18965271 31.89437836 58.18673706 33.0533905 C58.17555836 36.63986936 58.15045763 40.22609685 58.125 43.8125 C58.11496723 46.24674118 58.1058419 48.68098628 58.09765625 51.11523438 C58.07732975 57.07699725 58.03817577 63.03821783 58 69 C42.16 69 26.32 69 10 69 C9.96261719 65.266875 9.92523438 61.53375 9.88671875 57.6875 C9.84045745 54.05674507 9.78924036 50.42609135 9.73754883 46.79541016 C9.70437264 44.27952262 9.67631816 41.76356197 9.65356445 39.24755859 C9.61988482 35.62305656 9.56756009 31.99922021 9.51171875 28.375 C9.50532883 27.25697998 9.4989389 26.13895996 9.49235535 24.98706055 C9.33692493 16.65969117 8.17896974 10.17827345 2.8125 3.5 C2.01779297 2.49453125 2.01779297 2.49453125 1.20703125 1.46875 C0.80871094 0.9840625 0.41039062 0.499375 0 0 Z " fill="#FEC14F" transform="translate(346,15)"/>
<path d="M0 0 C0.98578941 -0.00807831 0.98578941 -0.00807831 1.99149376 -0.01631981 C4.19797417 -0.0306499 6.40385891 -0.02348364 8.61036682 -0.01637268 C10.1905109 -0.02207365 11.77065087 -0.02903685 13.3507843 -0.03717041 C17.64625193 -0.05514759 21.94151578 -0.05392488 26.23700976 -0.04822803 C29.82064164 -0.04514263 33.404234 -0.05122139 36.98786026 -0.05726677 C45.44100119 -0.07132546 53.89404109 -0.06973966 62.34718323 -0.05836487 C71.0729021 -0.04688287 79.79831364 -0.06095755 88.523992 -0.08776134 C96.01112392 -0.10990089 103.49815925 -0.11655965 110.98532158 -0.11068493 C115.45902332 -0.10730988 119.93252805 -0.10976659 124.40620232 -0.12693596 C128.61288875 -0.14237527 132.81911914 -0.13848343 137.02578735 -0.11963081 C138.57055129 -0.11593648 140.11534878 -0.11907797 141.66008186 -0.1295166 C143.7675696 -0.14267179 145.87353535 -0.13123052 147.98095703 -0.11352539 C149.16064277 -0.11331611 150.3403285 -0.11310682 151.55576229 -0.1128912 C155.18405015 0.49287617 156.36183673 1.48308407 158.55397034 4.38768005 C159.11647034 7.32518005 159.11647034 7.32518005 158.55397034 10.38768005 C156.01277473 13.56212266 154.50467348 15.19288148 150.46953583 16.01967907 C148.7274094 16.02445499 148.7274094 16.02445499 146.9500885 16.02932739 C145.97504482 16.04208567 145.97504482 16.04208567 144.98030329 16.05510169 C142.80964031 16.07732638 140.64069912 16.06395062 138.46998596 16.05052185 C136.91086604 16.05893714 135.35175629 16.0694632 133.79266357 16.0819397 C129.5632395 16.10899307 125.33440517 16.10428612 121.10493279 16.09223914 C117.57346253 16.08510822 114.04210138 16.09360671 110.51063967 16.10214454 C102.18009399 16.12209753 93.84983528 16.11652618 85.51930237 16.09446716 C76.92518831 16.07209687 68.33182514 16.08970958 59.737782 16.12751645 C52.35756343 16.15874315 44.97757741 16.16666875 37.59730101 16.1555627 C33.1900215 16.14907321 28.78317544 16.15108925 24.37594604 16.1748867 C20.23221197 16.1961223 16.08953844 16.1881838 11.94587135 16.15779305 C10.42572078 16.15145999 8.90548805 16.15534034 7.38539696 16.17020416 C-4.03139109 16.27278827 -4.03139109 16.27278827 -7.4828186 14.11330605 C-9.82188199 11.49478105 -10.44602966 9.69766617 -10.44602966 6.20018005 C-8.40011723 0.44605135 -5.92006704 0.01219795 0 0 Z " fill="#040405" transform="translate(69.44602966308594,368.61231994628906)"/>
<path d="M0 0 C0.89017319 -0.01134979 1.78034637 -0.02269958 2.69749451 -0.03439331 C3.66643646 -0.03146271 4.63537842 -0.0285321 5.63368225 -0.0255127 C6.66011337 -0.03398224 7.68654449 -0.04245178 8.74407959 -0.05117798 C12.13977928 -0.07459245 15.53502705 -0.07556907 18.93080139 -0.07434082 C21.28965436 -0.08143956 23.6485056 -0.08913814 26.00735474 -0.09741211 C30.95283304 -0.11086708 35.89815169 -0.112421 40.84364319 -0.10656738 C47.1837326 -0.10066972 53.52305667 -0.13126187 59.86299801 -0.17168427 C64.73488499 -0.19752272 69.60658674 -0.20044215 74.47853279 -0.1967926 C76.81614163 -0.19848738 79.1537587 -0.20816404 81.49130058 -0.22593689 C84.75933565 -0.24804999 88.02580918 -0.23846245 91.2938385 -0.2208252 C92.26075623 -0.23408844 93.22767395 -0.24735168 94.22389221 -0.26101685 C98.7998438 -0.20357974 100.88719907 -0.07836943 104.66421509 2.70629883 C106.52845764 5.39440918 106.52845764 5.39440918 106.59095764 9.01940918 C105.41214114 12.76388513 104.80045316 13.45209704 101.52845764 15.39440918 C99.3947916 15.77751923 99.3947916 15.77751923 97.05691528 15.78881836 C95.7216555 15.80584305 95.7216555 15.80584305 94.35942078 15.82321167 C93.39047882 15.82028107 92.42153687 15.81735046 91.42323303 15.81433105 C90.39680191 15.8228006 89.37037079 15.83127014 88.31283569 15.83999634 C84.917136 15.8634108 81.52188823 15.86438742 78.12611389 15.86315918 C75.76726092 15.87025792 73.40840969 15.87795649 71.04956055 15.88623047 C66.10408224 15.89968544 61.1587636 15.90123936 56.21327209 15.89538574 C49.87318268 15.88948808 43.53385861 15.92008023 37.19391727 15.96050262 C32.3220303 15.98634108 27.45032855 15.98926051 22.57838249 15.98561096 C20.24077366 15.98730574 17.90315659 15.9969824 15.5656147 16.01475525 C12.29757963 16.03686835 9.0311061 16.02728081 5.76307678 16.00964355 C4.79615906 16.0229068 3.82924133 16.03617004 2.83302307 16.04983521 C-1.74292852 15.9923981 -3.83028379 15.86718779 -7.6072998 13.08251953 C-9.47154236 10.39440918 -9.47154236 10.39440918 -9.53404236 6.76940918 C-7.92515439 1.65882387 -5.27355745 0.0254875 0 0 Z " fill="#030303" transform="translate(68.47154235839844,421.6055908203125)"/>
<path d="M0 0 C3.15338283 1.8452661 5.47899711 4.37868039 8 7 C9.04153013 8.02492799 10.08601465 9.04685897 11.1328125 10.06640625 C20.86590804 19.60544362 20.86590804 19.60544362 21.3125 24.25 C20.67176788 31.93878545 14.51178852 36.74251819 9.25 41.875 C8.55261719 42.56335938 7.85523438 43.25171875 7.13671875 43.9609375 C5.42896657 45.64529582 3.71670557 47.32477617 2 49 C-4.74080425 43.47349666 -10.8071129 37.30550441 -16.9375 31.125 C-18.01343727 30.04403726 -19.08960731 28.96330617 -20.16601562 27.8828125 C-22.78003292 25.25787359 -25.39088596 22.62981372 -28 20 C-26.61531918 16.88146171 -25.00929552 14.7624273 -22.59375 12.36328125 C-21.93246094 11.70392578 -21.27117187 11.04457031 -20.58984375 10.36523438 C-19.90019531 9.68783203 -19.21054687 9.01042969 -18.5 8.3125 C-17.81035156 7.62349609 -17.12070312 6.93449219 -16.41015625 6.22460938 C-11.11077859 0.97171748 -7.72624199 -1.44789026 0 0 Z " fill="#9AC3F7" transform="translate(461,240)"/>
<path d="M0 0 C6.74080425 5.52650334 12.8071129 11.69449559 18.9375 17.875 C20.01343727 18.95596274 21.08960731 20.03669383 22.16601562 21.1171875 C24.78003292 23.74212641 27.39088596 26.37018628 30 29 C28.49053489 32.18086518 26.92058175 34.29869906 24.375 36.75 C23.74335938 37.36359375 23.11171875 37.9771875 22.4609375 38.609375 C21.73777344 39.29773438 21.73777344 39.29773438 21 40 C16.70932454 38.34763349 13.8570447 35.1094793 10.703125 31.8984375 C10.10949158 31.30197418 9.51585815 30.70551086 8.90423584 30.0909729 C7.01473373 28.1903019 5.13231608 26.28278526 3.25 24.375 C1.96790935 23.08287532 0.68536239 21.79120324 -0.59765625 20.5 C-3.73708432 17.33855521 -6.87017801 14.1709539 -10 11 C-9.05052441 9.88322508 -8.09975103 8.76755346 -7.1484375 7.65234375 C-6.35445557 6.72023071 -6.35445557 6.72023071 -5.54443359 5.76928711 C-3.78334607 3.7518035 -1.93011408 1.85587892 0 0 Z " fill="#D9E6F7" transform="translate(421,270)"/>
<path d="M0 0 C6.14624045 5.09235835 11.7936747 10.61023792 17.4375 16.25 C18.35982422 17.16007812 19.28214844 18.07015625 20.23242188 19.0078125 C21.53856445 20.31105469 21.53856445 20.31105469 22.87109375 21.640625 C23.66443115 22.42985352 24.45776855 23.21908203 25.27514648 24.03222656 C27 26 27 26 27 28 C20.07 30.97 20.07 30.97 13 34 C8.33460681 30.18286012 3.87530951 26.14462535 -0.5 22 C-1.05268555 21.50209961 -1.60537109 21.00419922 -2.17480469 20.49121094 C-3.71875 19 -3.71875 19 -6 16 C-6.00556959 11.6668577 -4.43514781 8.41540867 -2.4375 4.625 C-1.98246094 3.75101562 -1.52742187 2.87703125 -1.05859375 1.9765625 C-0.70925781 1.32429688 -0.35992187 0.67203125 0 0 Z " fill="#E5A585" transform="translate(247,447)"/>
<path d="M0 0 C1.1055189 0.93590504 2.20935453 1.87379858 3.3125 2.8125 C3.92738281 3.33457031 4.54226562 3.85664063 5.17578125 4.39453125 C8.51952278 7.3373102 8.51952278 7.3373102 10 9 C10 9.66 10 10.32 10 11 C7.56781941 12.19963643 5.13029422 13.38484438 2.6875 14.5625 C1.99720703 14.90474609 1.30691406 15.24699219 0.59570312 15.59960938 C-4.66015625 18.11328125 -4.66015625 18.11328125 -8 17 C-6.85700498 14.35290709 -5.71075628 11.70730948 -4.5625 9.0625 C-4.23701172 8.30775391 -3.91152344 7.55300781 -3.57617188 6.77539062 C-1.11328125 1.11328125 -1.11328125 1.11328125 0 0 Z " fill="#4E85E8" transform="translate(234,477)"/>
</svg>
